# xmcd
#
# Track frame offsets:
#	150
#	14613
#	31704
#	47468
#	65352
#	89846
#	102640
#	117997
#	134527
#	152581
#	169431
#	182160
#	196992
#	212022
#	231203
#	248182
#	265931
#	283484
#	299987
#
# Disc length: 4199 seconds
#
# Revision: 0
# Processed by: cddbd v1.5.2PL0 Copyright (c) Steve Scherf et al.
# Submitted via: audiograbber 1.83.01
#
DISCID=2e106513
DTITLE=Various Artist - Promo Only Country Radio October 2007
DYEAR=2007
DGENRE=Country
TTITLE0=Trace Adkins - I Got My Game On
TTITLE1=Carrie Underwood - So Small
TTITLE2=Josh Turner - Firecracker
TTITLE3=George Strait - How 'Bout Them Cowgirls
TTITLE4=Keith Urban - Everybody (Album Version)
TTITLE5=The Roys - Workin' Girl Blues
TTITLE6=Jason Aldean - Laughed Until We Cried
TTITLE7=Montgomery Gentry - What Do Ya Think About That
TTITLE8=Little Big Town - I'm With The Band
TTITLE9=Big and Rich - Between Raising Hell And Amazing Grace
TTITLE10=Mark Chesnutt - Rollin' With The Flow
TTITLE11=Andy Griggs - Tattoo Rose
TTITLE12=Kristina Cornell - It's A Girl Thing
TTITLE13=Cody McCarver - Through God's Eyes
TTITLE14=Mud Hog - I Don't Know If I'm Coming Home
TTITLE15=James Otto - Just Got Started Lovin' You
TTITLE16=Trent Willmon - There Is A God
TTITLE17=Bomshel - The Power Of One
TTITLE18=Marty Stuart ft. Merle Haggard - Farmer's Blues
EXTD=
EXTT0=
EXTT1=
EXTT2=
EXTT3=
EXTT4=
EXTT5=
EXTT6=
EXTT7=
EXTT8=
EXTT9=
EXTT10=
EXTT11=
EXTT12=
EXTT13=
EXTT14=
EXTT15=
EXTT16=
EXTT17=
EXTT18=
PLAYORDER=
